<svg id="Layer_1" data-name="Layer 1" xmlns="http://www.w3.org/2000/svg" viewBox="0 0 2311.2 700.75">
    <defs>
        <style>
            .cls-1 {
                fill: #0b3763;
            }

            .cls-1,
            .cls-2 {
                fill-rule: evenodd;
            }

            .cls-2 {
                fill: #107b44;
            }

            .cls-3 {
                fill: #0c3762;
            }
        </style>
    </defs>
    <path class="cls-1"
        d="M338.3,199.44c-9.86-30.2-19.36-59.06-28.8-88-.67-.06-1.35-.06-2-.11-9.08,29.22-19.72,57.92-28.65,88.07Zm-52-149.08c16.41,0,32.1,0,47.8-.06,4.85,0,5.62,3.31,6.86,6.82,10.07,28.39,20.34,56.68,30.41,85.07q25.47,71.7,50.79,143.51c.88,2.42,1.45,4.9,2.38,8H370.77l-17.91-51.83c-3-.21-5.89-.57-8.78-.57q-35.38-.08-70.82-.05c-9,0-9.09.05-12.13,9.19-4.75,14.25-9.5,28.5-14.35,43.16H198C226.85,211.93,256.64,131.35,286.27,50.36Z" />
    <path class="cls-2"
        d="M2000.41,191.13c5.58-6.66,11.15-13.32,16.62-20,12.29-14.92,24.63-29.79,36.65-44.91,3.62-4.55,7.49-6.4,13.37-6.2,13,.47,26,.16,41.25.16-20.91,25.55-40.47,49.4-60.4,73.76,21.94,32.84,43.73,65.41,66.18,99a52.53,52.53,0,0,1-6.92,1c-12.44.11-24.93-.31-37.32.21-6.61.26-10.68-1.7-14.4-7.38-16.78-25.4-34.07-50.49-51.21-75.68-1.08-1.6-2.32-3-4.28-5.47-2.84,7.85-1.14,14.92-1.45,21.73-.31,7.54,0,15.08,0,22.61v43.47h-45.17V48.24h44.86V190.15A16.89,16.89,0,0,1,2000.41,191.13Z" />
    <path class="cls-1"
        d="M899,207.75c-1-12.91-2.63-25.14-9.08-36.24-7.9-13.58-19.51-20.91-35.57-19.87-15,.93-25.09,9.44-30.66,22.5-3.41,8-5.11,16.88-6.09,25.56a75.7,75.7,0,0,0,5,38.51c6.92,16.46,18.85,24.46,35.52,24.36,16.47-.15,28.86-8.52,34.64-25.34C896,227.78,897,217.56,899,207.75Zm-131.22-.31c0-26.38,7.69-49.45,27.62-67.83,38.87-35.77,107.37-28.5,137.26,14.92,12.86,18.68,15.38,40.06,14.2,62-2.64,48.93-35.36,75.83-74.85,81.56-40.06,5.78-79-12.34-95.76-46.77C770.53,239.7,767.64,224.47,767.79,207.44Z" />
    <path class="cls-1"
        d="M1242.19,219c-10.94,0-20.44-.93-29.68.31a39.77,39.77,0,0,0-17.6,7.75c-7,5.31-9.19,13.42-6.71,22.14,2.37,8.31,8.1,13.63,16.57,14.92,14.19,2.17,25.71-3.2,34.59-14.25a12.86,12.86,0,0,0,2.78-7.07C1242.4,235.32,1242.19,227.78,1242.19,219ZM1241,188.86c2.58-19.88-6.51-31.34-25.2-32.94-16.93-1.5-33.24,1.34-49.24,6.82-3.31,1.13-6.71,2-11,3.2v-34c-.15.2.1-.57.62-.83,30.3-14.5,61.64-19.25,94.37-9.34,19.41,5.88,30.4,19.82,35.46,38.71a84.66,84.66,0,0,1,2.53,20.39c.36,21.94.21,43.93.21,65.87,0,1.29-.06,2.64,0,3.93.15,12.39,2.47,14.5,15.79,12.85,0,7.49.31,14.82-.21,22.15-.15,2.06-2.21,4.75-4.18,5.78-10.11,5.21-20.9,7.59-32.31,6.24-10.69-1.23-18.53-6.14-21.58-17.08a42.76,42.76,0,0,0-2.06-4.65c-3.2,3-5.94,5.63-8.83,8.16-23.23,20.18-63.75,18.32-84.09-3.87-21.17-23-15.33-62.72,11.61-78.47,11-6.4,23-9.45,35.47-10.63,11-1,22.19-1.19,33.34-1.71C1234.76,189.11,1238,189,1241,188.86Z" />
    <path class="cls-2"
        d="M1913.43,293.39h-43.21c-.77-5.94-1.55-11.56-2.48-18.33-5,4-8.93,7.44-13.16,10.38-20.75,14.71-43.15,16.47-66.18,6.81-20.49-8.57-29.58-26-30-46.92-.93-40.26-.26-80.58-.21-120.9a21.9,21.9,0,0,1,.78-3.56h46c.16,2.74.47,5.27.47,7.8q.08,44.75,0,89.46c0,2.94.15,5.88,0,8.82-1.19,27.05,24.62,37.22,44.29,27.62,11.46-5.57,18.79-13.78,18.43-28.39-.83-32.42-.31-64.89-.31-97.31,0-2.53.31-5.06.46-8.15h45.07Z" />
    <path class="cls-1"
        d="M598.37,293.75H553.2c-.46-5.26-.88-10.27-1.44-16.67-2.64,1.75-4.5,2.68-5.94,4.08-20.08,18.27-43.41,22-68.71,14.55-20.8-6.19-34-24.93-35.05-48.47-.57-13.11-.31-26.22-.31-39.34-.05-25.55,0-51.15,0-76.71V120.82h47.6c.1,3.25.36,6.71.36,10.17v86.52c0,3.92.05,7.84.05,11.82.15,23.48,20.39,33.19,39.7,27.36a34.81,34.81,0,0,0,17.44-12.24,21.58,21.58,0,0,0,4.91-14.4c-.26-33.09-.11-66.23-.11-99.32V120.66h46.62C598.37,178.07,598.37,235.26,598.37,293.75Z" />
    <path class="cls-1"
        d="M1641.64,125.26v37c-3.66-1.19-6.61-2.22-9.6-3.1-15.38-4.7-30.82-9.29-47.13-5.42a27.77,27.77,0,0,0-7.38,2.53c-10.12,5.83-11.2,17.45-1.65,24.16,5.21,3.67,11.66,5.78,17.81,8,8,2.79,16.41,4.49,24.41,7.33,22,7.85,32.32,23,32.06,46.36-.26,26.68-13.73,44.55-39.39,52-27.82,8.05-55.08,4.9-82-4.54a40.24,40.24,0,0,1-5.27-2.79V251.37c11.41,3.36,22.15,7.23,33.25,9.65,10.84,2.38,21.93,4,33.09,1.14,10.68-2.74,15.53-9.34,13.88-19.1-1.13-6.56-5.78-10.38-11.25-12.65-7.54-3.1-15.54-5-23.23-7.79-9.19-3.36-18.69-6.2-27.26-10.74-26.94-14.2-26.58-47-15.33-64.84,10-15.74,25.09-23.64,42.49-27.61C1593.48,113.85,1617.22,117.52,1641.64,125.26Z" />
    <path class="cls-1"
        d="M652.78,120.3V80.71c15.64-2.53,30.61-5,47-7.69v46.61h46.25c.77,12,.31,23.28.46,35.78H700.84c-.41,3.56-1,6-1,8.51-.1,26.23.1,52.4-.16,78.62-.15,14.82,6.46,21.89,23.9,20.7,7.64-.51,15.18-3,23.23-4.75,1,10.33,2,20.6,3,31.8-25.4,9.09-50.33,13.32-75.32.42-13.57-7-20.95-18.9-21.21-34.13-.57-29.78-.42-59.62-.52-89.41v-11H627.54V120.3Z" />
    <path class="cls-1"
        d="M1115.67,126.14c-1.7,12.08-3.36,23.9-5.16,36.54-7.49-2-14.51-4.38-21.68-5.57-17.55-2.94-34.85-2.63-49.3,9.81-16.62,14.35-20.24,33.19-15.7,53.63,4.19,18.79,16.37,31,34.64,36.81,13.94,4.44,27.78,3.35,41.4-1.55,3.67-1.29,7.18-2.94,12-4.9.67,12.33,1.29,23.9,1.86,35.46-13.17,7.64-26.9,10.63-40.89,11.82-35.46,3-65.5-7.59-86.26-37.84-36.29-52.86-7.07-126.68,55.34-140.62,23.34-5.21,46.2-3.2,68.71,4.29C1112.11,124.48,1113.5,125.21,1115.67,126.14Z" />
    <path class="cls-1" d="M1337.28,45.71h46.15c.41,82.54,0,164.67.26,246.7-6.71,2.17-34.85,2.58-46.41.72Z" />
    <path class="cls-1" d="M1479.86,293.65h-44.29c-2-6.82-2.74-233.74-.72-247.73h45Z" />
    <path class="cls-2"
        d="M1729.6,268.35c-.25,16.11-13,28.09-29.47,27.62-12.85-.36-28.19-10.17-27.41-29.63.62-16,12.18-26.79,29.16-26.28C1718.09,240.58,1729.86,252.56,1729.6,268.35Z" />
    <path class="cls-3"
        d="M2077.2,521.57a9.53,9.53,0,0,0-4.39-8.42c-2.93-2-7-3-12.09-3.18l-21.84-.61a31.69,31.69,0,0,0-5.07,4.46,26.51,26.51,0,0,0-3,4.09,12.32,12.32,0,0,0-1.53,3.78,19.54,19.54,0,0,0-.36,3.78q0,6.1,6.16,9.28t17.39,3.17a41.83,41.83,0,0,0,11.72-1.4,22.78,22.78,0,0,0,7.69-3.72,13.38,13.38,0,0,0,4.15-5.19A15.34,15.34,0,0,0,2077.2,521.57Zm-7.2-86.9q0-8.79-4.88-13.67t-13.8-4.88a19.25,19.25,0,0,0-7.93,1.52,15.87,15.87,0,0,0-5.67,4.15,17.13,17.13,0,0,0-3.36,6.1,24.06,24.06,0,0,0-1.1,7.27q0,8.29,4.88,13.12t13.55,4.82a20.31,20.31,0,0,0,8.06-1.47,15.66,15.66,0,0,0,5.67-4,17.46,17.46,0,0,0,3.42-5.92A21.45,21.45,0,0,0,2070,434.67Zm39.42-25.75q0,5.85-1.34,8.66c-.9,1.87-2,2.81-3.3,2.81H2092a17.33,17.33,0,0,1,3.84,6.65,25.7,25.7,0,0,1,1.16,7.75,42.52,42.52,0,0,1-3.17,16.9,33.59,33.59,0,0,1-9.09,12.45,40.18,40.18,0,0,1-14.28,7.69,62,62,0,0,1-18.62,2.63,38.57,38.57,0,0,1-10-1.28,25.77,25.77,0,0,1-7.32-3,17.52,17.52,0,0,0-2.62,3.78,10.19,10.19,0,0,0-1.16,4.88,6.9,6.9,0,0,0,3.11,5.8c2.08,1.5,5,2.34,8.73,2.5l26.48,1a64.32,64.32,0,0,1,16.54,2.62,35.48,35.48,0,0,1,12.21,6.35,27.42,27.42,0,0,1,7.56,9.82A31.08,31.08,0,0,1,2108,520a33.77,33.77,0,0,1-3.54,15.2,34.45,34.45,0,0,1-10.62,12.39,55,55,0,0,1-17.76,8.29,91,91,0,0,1-25,3.06,110.68,110.68,0,0,1-23.74-2.2,52.3,52.3,0,0,1-16.11-6.1,24.78,24.78,0,0,1-9.15-9.34,25.12,25.12,0,0,1-2.87-11.9,27.73,27.73,0,0,1,1-7.69,29,29,0,0,1,3-7,36.53,36.53,0,0,1,4.94-6.41,53.4,53.4,0,0,1,6.71-5.85,20.31,20.31,0,0,1-11-18.19,26.59,26.59,0,0,1,3.29-13.12,41.8,41.8,0,0,1,8.55-10.68,32.3,32.3,0,0,1-6.84-10.25q-2.57-6-2.56-14.89a41.28,41.28,0,0,1,3.36-17,36,36,0,0,1,9.33-12.69,41.31,41.31,0,0,1,14.28-7.93,58.09,58.09,0,0,1,18.31-2.75,75.85,75.85,0,0,1,9.83.61,65.71,65.71,0,0,1,8.72,1.71h34.54q2.08,0,3.36,2.68T2109.42,408.92Zm-128.3,101.3a3.3,3.3,0,0,1-.73,2.13,5.4,5.4,0,0,1-2.44,1.53,20.52,20.52,0,0,1-4.7.91,72.71,72.71,0,0,1-7.39.31,73.84,73.84,0,0,1-7.5-.31,20.41,20.41,0,0,1-4.7-.91,5.4,5.4,0,0,1-2.44-1.53,3.31,3.31,0,0,1-.74-2.13V448.09a52.68,52.68,0,0,0-1.15-12.45,24.85,24.85,0,0,0-3.36-7.75,15,15,0,0,0-5.68-5,17.65,17.65,0,0,0-8.11-1.77q-5.87,0-11.84,4.27a63.91,63.91,0,0,0-12.45,12.45v72.38a3.35,3.35,0,0,1-.73,2.13,5.45,5.45,0,0,1-2.51,1.53,21.36,21.36,0,0,1-4.69.91,89.56,89.56,0,0,1-14.89,0,21.34,21.34,0,0,1-4.7-.91,5.45,5.45,0,0,1-2.51-1.53,3.35,3.35,0,0,1-.73-2.13V401.35a3.81,3.81,0,0,1,.61-2.14,4.44,4.44,0,0,1,2.2-1.52,17.19,17.19,0,0,1,4.09-.92,54.32,54.32,0,0,1,6.28-.3,57.34,57.34,0,0,1,6.47.3,14.46,14.46,0,0,1,4,.92,4.4,4.4,0,0,1,2,1.52,3.73,3.73,0,0,1,.61,2.14v12.57a69.29,69.29,0,0,1,18.37-14.65,41.57,41.57,0,0,1,19.47-4.88q11.1,0,18.73,3.66a32.75,32.75,0,0,1,12.33,9.95,40.34,40.34,0,0,1,6.77,14.71,85.36,85.36,0,0,1,2.08,20.26ZM1848.77,364.49q0,9.27-3.79,12.81t-14,3.54q-10.38,0-14-3.41t-3.6-12.33q0-9.27,3.73-12.88t14.09-3.6q10.26,0,13.92,3.48T1848.77,364.49Zm-2.32,145.73a3.35,3.35,0,0,1-.73,2.13,5.45,5.45,0,0,1-2.51,1.53,21.36,21.36,0,0,1-4.69.91,89.56,89.56,0,0,1-14.89,0,21.34,21.34,0,0,1-4.7-.91,5.45,5.45,0,0,1-2.51-1.53,3.35,3.35,0,0,1-.73-2.13V401.59a3.35,3.35,0,0,1,.73-2.13,5.84,5.84,0,0,1,2.51-1.59,21,21,0,0,1,4.7-1,77.16,77.16,0,0,1,14.89,0,21.06,21.06,0,0,1,4.69,1,5.84,5.84,0,0,1,2.51,1.59,3.35,3.35,0,0,1,.73,2.13Zm-53-10.74a38.23,38.23,0,0,1-.68,8.24,8.69,8.69,0,0,1-1.77,4,9.54,9.54,0,0,1-3.23,2.08,29.54,29.54,0,0,1-5,1.58,51.17,51.17,0,0,1-6.23,1,60.9,60.9,0,0,1-6.77.37,48.59,48.59,0,0,1-15.87-2.32,26.49,26.49,0,0,1-11.11-7.14,29.64,29.64,0,0,1-6.46-12.14,63.81,63.81,0,0,1-2.08-17.34V422.1h-13.06q-2.31,0-3.54-2.87c-.81-1.91-1.22-5.11-1.22-9.58a47.84,47.84,0,0,1,.31-6,14.24,14.24,0,0,1,.91-3.85,4.54,4.54,0,0,1,1.53-2,3.72,3.72,0,0,1,2.13-.61h12.94V372.91a3.78,3.78,0,0,1,.67-2.2,5,5,0,0,1,2.44-1.64,19.11,19.11,0,0,1,4.76-1c2-.2,4.46-.31,7.39-.31s5.51.11,7.5.31a18.08,18.08,0,0,1,4.7,1,5.41,5.41,0,0,1,2.44,1.64,3.58,3.58,0,0,1,.74,2.2V397.2h23.67a3.73,3.73,0,0,1,2.14.61,4.46,4.46,0,0,1,1.52,2,14.2,14.2,0,0,1,.92,3.85,49.84,49.84,0,0,1,.31,6c0,4.47-.41,7.67-1.23,9.58s-2,2.87-3.53,2.87h-23.8v51.14q0,8.91,2.8,13.36t10,4.46a20.87,20.87,0,0,0,4.39-.43,27.46,27.46,0,0,0,3.48-1c1-.36,1.87-.69,2.57-1a4.91,4.91,0,0,1,1.89-.43,2.53,2.53,0,0,1,1.4.43,2.86,2.86,0,0,1,1,1.7,27,27,0,0,1,.67,3.48A42.78,42.78,0,0,1,1793.5,499.48Zm-84.76-20a36.66,36.66,0,0,1-3.48,16.36,32.58,32.58,0,0,1-9.82,11.83,44,44,0,0,1-15,7.14,70.57,70.57,0,0,1-18.79,2.38,71.67,71.67,0,0,1-11.66-.91,69.56,69.56,0,0,1-9.94-2.32,52.54,52.54,0,0,1-7.33-2.87,18.14,18.14,0,0,1-4.27-2.74,8.52,8.52,0,0,1-2.07-4,33.55,33.55,0,0,1-.74-8.12,50.1,50.1,0,0,1,.25-5.67,14.06,14.06,0,0,1,.73-3.42,3.22,3.22,0,0,1,1.22-1.71,3.64,3.64,0,0,1,1.83-.43,9.08,9.08,0,0,1,4,1.53c1.75,1,3.92,2.13,6.53,3.36a69.38,69.38,0,0,0,9.09,3.41,40.17,40.17,0,0,0,11.78,1.59,28.93,28.93,0,0,0,7.38-.86,18.35,18.35,0,0,0,5.62-2.44,10.43,10.43,0,0,0,3.6-4,12.46,12.46,0,0,0,1.22-5.62,9.33,9.33,0,0,0-2.26-6.28,20.1,20.1,0,0,0-6-4.58,69.18,69.18,0,0,0-8.42-3.66q-4.7-1.71-9.64-3.79a88.1,88.1,0,0,1-9.65-4.76,36.62,36.62,0,0,1-8.42-6.59,30,30,0,0,1-6-9.39,34.78,34.78,0,0,1-2.26-13.19,33.41,33.41,0,0,1,3.06-14.34,31.16,31.16,0,0,1,8.78-11.16,41.62,41.62,0,0,1,14-7.21,62.37,62.37,0,0,1,18.49-2.56,67.33,67.33,0,0,1,10,.73,73.38,73.38,0,0,1,8.72,1.83,42.65,42.65,0,0,1,6.59,2.38,22.47,22.47,0,0,1,3.85,2.2,6.21,6.21,0,0,1,1.65,1.83,8.11,8.11,0,0,1,.73,2.2c.16.85.3,1.91.42,3.17s.19,2.83.19,4.7c0,2.2-.06,4-.19,5.37a13.82,13.82,0,0,1-.61,3.3,2.87,2.87,0,0,1-1.16,1.64,3.23,3.23,0,0,1-1.7.43,8.33,8.33,0,0,1-3.42-1.28q-2.32-1.27-5.8-2.75a68.94,68.94,0,0,0-8-2.74,38.61,38.61,0,0,0-10.44-1.28,26.83,26.83,0,0,0-7.2.85,13.66,13.66,0,0,0-5,2.44,10.22,10.22,0,0,0-2.93,3.72,10.92,10.92,0,0,0-1,4.58,9.11,9.11,0,0,0,2.32,6.35,21.14,21.14,0,0,0,6.1,4.51,67.71,67.71,0,0,0,8.61,3.67c3.21,1.13,6.46,2.38,9.76,3.72a88.08,88.08,0,0,1,9.76,4.7,36.6,36.6,0,0,1,8.61,6.59,30.29,30.29,0,0,1,6.1,9.33A32.63,32.63,0,0,1,1708.74,479.46ZM1577,443.82q.38-12.93-5.19-20.32t-17.14-7.38a22.28,22.28,0,0,0-10.19,2.19,21,21,0,0,0-7.21,5.92,27.05,27.05,0,0,0-4.39,8.79,43.56,43.56,0,0,0-1.77,10.8Zm29.78,8.79q0,5.61-2.5,8.3a9,9,0,0,1-6.9,2.68h-66.27a45.26,45.26,0,0,0,1.65,12.64,24.18,24.18,0,0,0,5.25,9.64,22.87,22.87,0,0,0,9.27,6,39.84,39.84,0,0,0,13.61,2.07,76.93,76.93,0,0,0,14.16-1.15,94.34,94.34,0,0,0,10.56-2.57c3-.93,5.43-1.79,7.38-2.56a13.76,13.76,0,0,1,4.76-1.16,3.54,3.54,0,0,1,1.83.43,3.11,3.11,0,0,1,1.22,1.52,10,10,0,0,1,.67,3.11c.12,1.35.19,3,.19,5.07,0,1.79,0,3.32-.13,4.58a29,29,0,0,1-.36,3.23,7.79,7.79,0,0,1-.73,2.26,8.66,8.66,0,0,1-1.29,1.77,14.74,14.74,0,0,1-4.33,2.32,70.26,70.26,0,0,1-9,2.87,124.55,124.55,0,0,1-12.57,2.44,104.83,104.83,0,0,1-15.14,1,80.11,80.11,0,0,1-25.44-3.66,45.27,45.27,0,0,1-18.25-11.1,46.26,46.26,0,0,1-10.92-18.8q-3.6-11.36-3.6-26.61a84.65,84.65,0,0,1,3.78-26.18,54.84,54.84,0,0,1,11-19.77,47.25,47.25,0,0,1,17.52-12.39,60.36,60.36,0,0,1,23.25-4.27q13.66,0,23.37,4a42.11,42.11,0,0,1,15.93,11.17,45,45,0,0,1,9.15,16.9,73.39,73.39,0,0,1,2.93,21.24Zm-116.4-51.38c0,.4,0,.89-.07,1.46a18.8,18.8,0,0,1-.24,1.89c-.12.69-.28,1.49-.49,2.38s-.47,1.91-.79,3.05l-32.71,98.5a9.76,9.76,0,0,1-1.65,3.36,6.91,6.91,0,0,1-3.42,2,28.85,28.85,0,0,1-6.46,1q-4.1.24-10.68.24t-10.56-.31a29.27,29.27,0,0,1-6.41-1,6.91,6.91,0,0,1-3.36-2,9.52,9.52,0,0,1-1.64-3.23L1379.19,410c-.49-1.62-.88-3.09-1.16-4.39a21.56,21.56,0,0,1-.49-2.81c0-.57-.06-1.1-.06-1.58a3.5,3.5,0,0,1,.67-2.14,5,5,0,0,1,2.38-1.53,19.4,19.4,0,0,1,4.7-.85q3-.24,7.51-.24c3.33,0,6,.1,8,.3a24.91,24.91,0,0,1,4.82.86,4.54,4.54,0,0,1,2.5,1.58,9.39,9.39,0,0,1,1.22,2.5l24.78,80,.73,3,.74-3,24.41-80a6.86,6.86,0,0,1,1.15-2.5,4.93,4.93,0,0,1,2.51-1.58,23,23,0,0,1,4.57-.86q2.88-.3,7.51-.3t7.38.24a17.09,17.09,0,0,1,4.46.85,4.51,4.51,0,0,1,2.2,1.53A3.81,3.81,0,0,1,1490.38,401.23Zm-126.9,109a3.3,3.3,0,0,1-.73,2.13,5.4,5.4,0,0,1-2.44,1.53,20.52,20.52,0,0,1-4.7.91,72.71,72.71,0,0,1-7.39.31,73.84,73.84,0,0,1-7.5-.31,20.41,20.41,0,0,1-4.7-.91,5.4,5.4,0,0,1-2.44-1.53,3.31,3.31,0,0,1-.74-2.13V448.09a52.68,52.68,0,0,0-1.15-12.45,24.85,24.85,0,0,0-3.36-7.75,15,15,0,0,0-5.68-5,17.65,17.65,0,0,0-8.11-1.77q-5.86,0-11.84,4.27a63.91,63.91,0,0,0-12.45,12.45v72.38a3.35,3.35,0,0,1-.73,2.13,5.45,5.45,0,0,1-2.51,1.53,21.36,21.36,0,0,1-4.69.91,89.56,89.56,0,0,1-14.89,0,21.34,21.34,0,0,1-4.7-.91,5.45,5.45,0,0,1-2.51-1.53,3.35,3.35,0,0,1-.73-2.13V401.35a3.81,3.81,0,0,1,.61-2.14,4.44,4.44,0,0,1,2.2-1.52,17.19,17.19,0,0,1,4.09-.92,54.32,54.32,0,0,1,6.28-.3,57.34,57.34,0,0,1,6.47.3,14.46,14.46,0,0,1,4,.92,4.4,4.4,0,0,1,2,1.52,3.73,3.73,0,0,1,.61,2.14v12.57a69.29,69.29,0,0,1,18.37-14.65,41.57,41.57,0,0,1,19.47-4.88q11.1,0,18.73,3.66a32.75,32.75,0,0,1,12.33,9.95,40.34,40.34,0,0,1,6.77,14.71,85.36,85.36,0,0,1,2.08,20.26ZM1226.94,510a3.38,3.38,0,0,1-.79,2.2,5.6,5.6,0,0,1-2.62,1.59,25.92,25.92,0,0,1-4.88,1,82.08,82.08,0,0,1-15.57,0,26,26,0,0,1-4.94-1,5.6,5.6,0,0,1-2.62-1.59,3.39,3.39,0,0,1-.8-2.2V360.83a3.39,3.39,0,0,1,.8-2.2,5.62,5.62,0,0,1,2.68-1.59,27.4,27.4,0,0,1,4.94-1,65.21,65.21,0,0,1,7.69-.37,66.57,66.57,0,0,1,7.82.37,25.92,25.92,0,0,1,4.88,1,5.6,5.6,0,0,1,2.62,1.59,3.38,3.38,0,0,1,.79,2.2Zm-120.5.25a3.3,3.3,0,0,1-.73,2.13,5.4,5.4,0,0,1-2.44,1.53,20.52,20.52,0,0,1-4.7.91,72.71,72.71,0,0,1-7.39.31,73.84,73.84,0,0,1-7.5-.31,20.41,20.41,0,0,1-4.7-.91,5.4,5.4,0,0,1-2.44-1.53,3.31,3.31,0,0,1-.74-2.13V448.09a52.68,52.68,0,0,0-1.15-12.45,24.85,24.85,0,0,0-3.36-7.75,15,15,0,0,0-5.68-5,17.65,17.65,0,0,0-8.11-1.77q-5.87,0-11.84,4.27a63.91,63.91,0,0,0-12.45,12.45v72.38a3.35,3.35,0,0,1-.73,2.13,5.45,5.45,0,0,1-2.51,1.53,21.36,21.36,0,0,1-4.69.91,89.56,89.56,0,0,1-14.89,0,21.34,21.34,0,0,1-4.7-.91,5.45,5.45,0,0,1-2.51-1.53,3.35,3.35,0,0,1-.73-2.13V401.35a3.81,3.81,0,0,1,.61-2.14,4.44,4.44,0,0,1,2.2-1.52,17.19,17.19,0,0,1,4.09-.92,54.32,54.32,0,0,1,6.28-.3,57.34,57.34,0,0,1,6.47.3,14.46,14.46,0,0,1,4,.92,4.4,4.4,0,0,1,2,1.52,3.73,3.73,0,0,1,.61,2.14v12.57a69.29,69.29,0,0,1,18.37-14.65,41.57,41.57,0,0,1,19.47-4.88q11.1,0,18.73,3.66a32.75,32.75,0,0,1,12.33,9.95,40.34,40.34,0,0,1,6.77,14.71,85.36,85.36,0,0,1,2.08,20.26ZM946.53,455.91a80.18,80.18,0,0,0-1.28-14.83,34.81,34.81,0,0,0-4.33-11.78,21.65,21.65,0,0,0-8.12-7.81q-5.07-2.81-12.75-2.81a27,27,0,0,0-12,2.5,21.58,21.58,0,0,0-8.42,7.32,35.25,35.25,0,0,0-4.94,11.6,65.5,65.5,0,0,0-1.65,15.44,76,76,0,0,0,1.35,14.83,36.53,36.53,0,0,0,4.33,11.78,20.69,20.69,0,0,0,8.11,7.75,26.66,26.66,0,0,0,12.7,2.74,27.23,27.23,0,0,0,12.08-2.5,21.61,21.61,0,0,0,8.42-7.26,33.24,33.24,0,0,0,4.88-11.54A67.78,67.78,0,0,0,946.53,455.91Zm31.61-1.23a83.23,83.23,0,0,1-3.66,25.39,53.43,53.43,0,0,1-11.11,19.77,49.24,49.24,0,0,1-18.67,12.82q-11.24,4.51-26.24,4.51-14.52,0-25.27-4a45.37,45.37,0,0,1-17.81-11.72,48.17,48.17,0,0,1-10.5-18.92,88,88,0,0,1-3.42-25.63,82.61,82.61,0,0,1,3.72-25.45,53.75,53.75,0,0,1,11.17-19.77A49.91,49.91,0,0,1,895,398.91q11.17-4.52,26.18-4.52,14.65,0,25.39,4A44.41,44.41,0,0,1,964.29,410a48.51,48.51,0,0,1,10.43,18.92A88.48,88.48,0,0,1,978.14,454.68ZM839.69,364.49q0,9.27-3.79,12.81t-14,3.54q-10.38,0-14-3.41t-3.6-12.33q0-9.27,3.73-12.88t14.09-3.6q10.26,0,13.92,3.48T839.69,364.49Zm-2.32,145.73a3.35,3.35,0,0,1-.73,2.13,5.45,5.45,0,0,1-2.51,1.53,21.36,21.36,0,0,1-4.69.91,89.56,89.56,0,0,1-14.89,0,21.34,21.34,0,0,1-4.7-.91,5.45,5.45,0,0,1-2.51-1.53,3.35,3.35,0,0,1-.73-2.13V401.59a3.35,3.35,0,0,1,.73-2.13,5.84,5.84,0,0,1,2.51-1.59,21,21,0,0,1,4.7-1,77.16,77.16,0,0,1,14.89,0,21.06,21.06,0,0,1,4.69,1,5.84,5.84,0,0,1,2.51,1.59,3.35,3.35,0,0,1,.73,2.13Zm-53.83-30.76a36.66,36.66,0,0,1-3.48,16.36,32.58,32.58,0,0,1-9.82,11.83,44,44,0,0,1-15,7.14,70.57,70.57,0,0,1-18.79,2.38,71.67,71.67,0,0,1-11.66-.91,69.56,69.56,0,0,1-9.94-2.32,52.54,52.54,0,0,1-7.33-2.87,18.14,18.14,0,0,1-4.27-2.74,8.52,8.52,0,0,1-2.07-4,33.55,33.55,0,0,1-.74-8.12,50.1,50.1,0,0,1,.25-5.67,14.06,14.06,0,0,1,.73-3.42,3.22,3.22,0,0,1,1.22-1.71,3.64,3.64,0,0,1,1.83-.43,9.08,9.08,0,0,1,4,1.53c1.75,1,3.92,2.13,6.53,3.36a69.38,69.38,0,0,0,9.09,3.41,40.17,40.17,0,0,0,11.78,1.59,28.93,28.93,0,0,0,7.38-.86,18.35,18.35,0,0,0,5.62-2.44,10.43,10.43,0,0,0,3.6-4,12.46,12.46,0,0,0,1.22-5.62,9.33,9.33,0,0,0-2.26-6.28,20.1,20.1,0,0,0-6-4.58,69.18,69.18,0,0,0-8.42-3.66q-4.69-1.71-9.64-3.79a88.1,88.1,0,0,1-9.65-4.76,36.62,36.62,0,0,1-8.42-6.59,30,30,0,0,1-6-9.39A34.78,34.78,0,0,1,701,429.66a33.41,33.41,0,0,1,3.06-14.34,31.16,31.16,0,0,1,8.78-11.16,41.62,41.62,0,0,1,14-7.21,62.37,62.37,0,0,1,18.49-2.56,67.33,67.33,0,0,1,9.95.73A73.38,73.38,0,0,1,764,397a42.65,42.65,0,0,1,6.59,2.38,22.47,22.47,0,0,1,3.85,2.2,6.21,6.21,0,0,1,1.65,1.83,8.11,8.11,0,0,1,.73,2.2c.16.85.3,1.91.42,3.17s.19,2.83.19,4.7c0,2.2-.06,4-.19,5.37a13.82,13.82,0,0,1-.61,3.3,2.87,2.87,0,0,1-1.16,1.64,3.23,3.23,0,0,1-1.7.43,8.33,8.33,0,0,1-3.42-1.28q-2.33-1.27-5.8-2.75a68.94,68.94,0,0,0-8-2.74,38.61,38.61,0,0,0-10.44-1.28,26.83,26.83,0,0,0-7.2.85,13.66,13.66,0,0,0-5,2.44,10.22,10.22,0,0,0-2.93,3.72,10.92,10.92,0,0,0-1,4.58,9.11,9.11,0,0,0,2.32,6.35,21.14,21.14,0,0,0,6.1,4.51,67.71,67.71,0,0,0,8.61,3.67c3.21,1.13,6.46,2.38,9.76,3.72a88.08,88.08,0,0,1,9.76,4.7,36.6,36.6,0,0,1,8.61,6.59,30.29,30.29,0,0,1,6.1,9.33A32.63,32.63,0,0,1,783.54,479.46Zm-105-115q0,9.27-3.79,12.81t-14,3.54q-10.38,0-14-3.41t-3.6-12.33q0-9.27,3.73-12.88t14.09-3.6q10.26,0,13.92,3.48T678.53,364.49Zm-2.32,145.73a3.35,3.35,0,0,1-.73,2.13,5.45,5.45,0,0,1-2.51,1.53,21.36,21.36,0,0,1-4.69.91,89.56,89.56,0,0,1-14.89,0,21.34,21.34,0,0,1-4.7-.91,5.45,5.45,0,0,1-2.51-1.53,3.35,3.35,0,0,1-.73-2.13V401.59a3.35,3.35,0,0,1,.73-2.13,5.84,5.84,0,0,1,2.51-1.59,21,21,0,0,1,4.7-1,77.16,77.16,0,0,1,14.89,0,21.06,21.06,0,0,1,4.69,1,5.84,5.84,0,0,1,2.51,1.59,3.35,3.35,0,0,1,.73,2.13Zm-53-17.33c0,2.11-.06,3.88-.19,5.31a31.77,31.77,0,0,1-.48,3.6,11.23,11.23,0,0,1-.74,2.38,8.72,8.72,0,0,1-1.89,2.32,27.11,27.11,0,0,1-5,3.41,48.21,48.21,0,0,1-8.06,3.6,64.74,64.74,0,0,1-9.82,2.57,60.38,60.38,0,0,1-10.93,1,59.36,59.36,0,0,1-22.27-3.9,41.78,41.78,0,0,1-16.29-11.54A50.63,50.63,0,0,1,537.58,483a86,86,0,0,1-3.36-25.14q0-16.37,4.09-28.26a54.15,54.15,0,0,1,11.41-19.71,45.45,45.45,0,0,1,17.33-11.59,61.54,61.54,0,0,1,22-3.79,53.34,53.34,0,0,1,9.58.86,54.76,54.76,0,0,1,8.79,2.32,46.1,46.1,0,0,1,7.32,3.29,21.94,21.94,0,0,1,4.58,3.18,12.12,12.12,0,0,1,1.89,2.25,7.82,7.82,0,0,1,.86,2.38,34,34,0,0,1,.49,3.6q.18,2.14.18,5.19,0,7.08-1.22,9.95c-.82,1.91-1.87,2.87-3.18,2.87a7.52,7.52,0,0,1-4.39-1.71q-2.32-1.71-5.49-3.79a41.37,41.37,0,0,0-7.57-3.78,29,29,0,0,0-10.5-1.71q-12,0-18.3,9.22t-6.35,27a67.62,67.62,0,0,0,1.59,15.5,32.92,32.92,0,0,0,4.7,11.23,19.68,19.68,0,0,0,7.81,6.77,24.86,24.86,0,0,0,10.92,2.26,28.53,28.53,0,0,0,10.92-1.89,44,44,0,0,0,8-4.21q3.42-2.32,5.74-4.21a6.76,6.76,0,0,1,3.9-1.89,2.75,2.75,0,0,1,1.83.61,4.25,4.25,0,0,1,1.16,2.25,26.92,26.92,0,0,1,.67,4.22Q623.2,488.85,623.2,492.89ZM485.72,443.82q.38-12.93-5.19-20.32t-17.14-7.38a22.28,22.28,0,0,0-10.19,2.19,21,21,0,0,0-7.21,5.92A27.05,27.05,0,0,0,441.6,433a43.56,43.56,0,0,0-1.77,10.8Zm29.78,8.79q0,5.61-2.5,8.3a9,9,0,0,1-6.9,2.68H439.83a45.26,45.26,0,0,0,1.65,12.64,24.18,24.18,0,0,0,5.25,9.64,22.87,22.87,0,0,0,9.27,6A39.84,39.84,0,0,0,469.61,494a76.93,76.93,0,0,0,14.16-1.15,94.34,94.34,0,0,0,10.56-2.57c3-.93,5.43-1.79,7.38-2.56a13.76,13.76,0,0,1,4.76-1.16,3.54,3.54,0,0,1,1.83.43,3.11,3.11,0,0,1,1.22,1.52,10,10,0,0,1,.67,3.11c.12,1.35.19,3,.19,5.07,0,1.79,0,3.32-.13,4.58a29,29,0,0,1-.36,3.23,7.79,7.79,0,0,1-.73,2.26,8.66,8.66,0,0,1-1.29,1.77,14.74,14.74,0,0,1-4.33,2.32,70.26,70.26,0,0,1-9,2.87,124.55,124.55,0,0,1-12.57,2.44,104.83,104.83,0,0,1-15.14,1,80.11,80.11,0,0,1-25.44-3.66,45.27,45.27,0,0,1-18.25-11.1,46.26,46.26,0,0,1-10.92-18.8q-3.6-11.36-3.6-26.61a84.65,84.65,0,0,1,3.78-26.18,54.84,54.84,0,0,1,11-19.77,47.25,47.25,0,0,1,17.52-12.39,60.36,60.36,0,0,1,23.25-4.27q13.67,0,23.37,4a42.11,42.11,0,0,1,15.93,11.17,45,45,0,0,1,9.15,16.9,73.39,73.39,0,0,1,2.93,21.24ZM398.83,411.48q0,4.39-.25,7.2a21.53,21.53,0,0,1-.73,4.39,4.27,4.27,0,0,1-1.28,2.2,3.19,3.19,0,0,1-2,.61,6.57,6.57,0,0,1-2.2-.43c-.82-.28-1.73-.59-2.75-.91s-2.13-.63-3.35-.92a18.07,18.07,0,0,0-4-.42,13.61,13.61,0,0,0-5.13,1,21.41,21.41,0,0,0-5.31,3.24,38.65,38.65,0,0,0-5.73,5.86,94.28,94.28,0,0,0-6.41,9v67.86a3.35,3.35,0,0,1-.73,2.13,5.45,5.45,0,0,1-2.51,1.53,21.36,21.36,0,0,1-4.69.91,89.56,89.56,0,0,1-14.89,0,21.34,21.34,0,0,1-4.7-.91,5.45,5.45,0,0,1-2.51-1.53,3.35,3.35,0,0,1-.73-2.13V401.35a3.81,3.81,0,0,1,.61-2.14,4.44,4.44,0,0,1,2.2-1.52,17.19,17.19,0,0,1,4.09-.92,54.32,54.32,0,0,1,6.28-.3,57.34,57.34,0,0,1,6.47.3,14.46,14.46,0,0,1,4,.92,4.4,4.4,0,0,1,2,1.52,3.73,3.73,0,0,1,.61,2.14V414.9a86.81,86.81,0,0,1,8.06-10.07,45.34,45.34,0,0,1,7.2-6.29,22.87,22.87,0,0,1,6.83-3.23,26.37,26.37,0,0,1,6.84-.92q1.59,0,3.42.18a36.12,36.12,0,0,1,3.78.61,27.07,27.07,0,0,1,3.42,1,6.72,6.72,0,0,1,2.13,1.16,3.82,3.82,0,0,1,1,1.34,10.62,10.62,0,0,1,.55,2,31.74,31.74,0,0,1,.37,3.84Q398.83,407.09,398.83,411.48Zm-126.61-4.76q0-8.3-2.93-13.67a20.27,20.27,0,0,0-7.2-7.93,23.92,23.92,0,0,0-9-3.24,68.32,68.32,0,0,0-9.71-.67H229.74v53.58h14.4A34.93,34.93,0,0,0,257,432.72a22,22,0,0,0,8.48-5.8,25.05,25.05,0,0,0,5-8.91A35.87,35.87,0,0,0,272.22,406.72Zm33.56-2.32A62.37,62.37,0,0,1,301.63,428a45.52,45.52,0,0,1-12.08,17.27,53.53,53.53,0,0,1-19.47,10.68q-11.54,3.66-27.16,3.66H229.74V510a3.38,3.38,0,0,1-.79,2.2,5.58,5.58,0,0,1-2.63,1.59,25.76,25.76,0,0,1-4.88,1,82,82,0,0,1-15.56,0,26,26,0,0,1-4.94-1,5.13,5.13,0,0,1-2.56-1.59,3.56,3.56,0,0,1-.74-2.2V367.91q0-5.75,3-8.61a10.93,10.93,0,0,1,7.88-2.87h37.22c3.74,0,7.3.15,10.68.43a114.83,114.83,0,0,1,12.14,1.83,54.06,54.06,0,0,1,14.35,5.19,42.4,42.4,0,0,1,12.38,9.58A39.83,39.83,0,0,1,303.09,387,52.86,52.86,0,0,1,305.78,404.4Z" />
</svg>