<svg id="Layer_1" data-name="Layer 1" xmlns="http://www.w3.org/2000/svg" viewBox="0 0 1675.34 1692.16"><defs><style>.cls-1{fill:#0b3763;}.cls-1,.cls-2{fill-rule:evenodd;}.cls-2{fill:#107b44;}</style></defs><path class="cls-1" d="M1360.9,885.21c-.16-66.18-7.44-117.23-23.18-166.94-31.44-99.17-88.48-180.83-170-245.1C1081.26,405,982.41,368.32,872.56,362.44c-67.68-3.61-134.06,4.8-198.54,26.43-84.35,28.29-156.88,75-217,140.77-74,81-116.62,176.39-129.63,285a511.61,511.61,0,0,0,6,157.61c9.55,49.86,25.76,97.46,49.51,142.32,33.91,64.06,79.75,118.31,136.28,163.58C585.13,1331,659.83,1365,742.58,1381.6c36.18,7.28,72.63,10,109.48,9.55a484.63,484.63,0,0,0,115.69-14.91c124.92-32.11,224.91-101.29,299.82-206C1331.32,1080.91,1360.18,980.3,1360.9,885.21Zm56.63-10.27c-1.09,127.25-37.69,241.12-112.85,341.89-71.39,95.65-163.59,163.43-276.64,202.3a549.69,549.69,0,0,1-114.6,26.28,559.76,559.76,0,0,1-90.28,3.35,633.36,633.36,0,0,1-108-13.73c-60.76-13.26-117.38-36.7-170.35-69-53.27-32.47-101.28-71.34-141.6-119.19-53.73-63.8-92.5-135.66-114.75-216.19-14.51-52.45-22-105.93-21-160.29,2.48-130.19,41.45-248.09,122.7-350.66C460.1,431.3,549,369.05,656,333.17a571,571,0,0,1,108-24.52c43.1-5.63,86.31-7.54,129.46-3.41,114.91,10.9,219.34,49.51,309.84,122.35,93.9,75.52,158.73,170.71,191.77,287.06C1410.09,767.67,1417,821.77,1417.53,874.94Z"/><path class="cls-2" d="M810.82,258.16c-129.11,7.59-246.13,49.15-349.74,129.11-23.33-26.79-46.51-53.33-70.46-80.79,123.79-96.43,263.79-146,419.53-152.54C812.37,160.34,813,244.69,810.82,258.16Z"/><path class="cls-2" d="M1222.76,386.7c-103-79.44-219.86-120.48-349.38-128.69V153.84c156.37,6.81,295.8,58.64,420.36,153.73C1269.94,334.05,1246.61,360.12,1222.76,386.7Z"/><path class="cls-2" d="M814.28,1491.25v106.34C675.05,1592,549,1549.84,434.08,1471.17c21.17-28.86,41.66-56.68,62.57-85.18C592.51,1451.91,698.75,1484.8,814.28,1491.25Z"/><path class="cls-2" d="M1187.81,1386.92c21,29.12,41.5,57.46,62.82,87-114.34,77.18-240,117.49-377.76,123.95V1491.3a632.18,632.18,0,0,0,164.31-30.25A576.12,576.12,0,0,0,1187.81,1386.92Z"/><path class="cls-2" d="M162.35,1124c33-11.3,65.46-22.45,99-33.91q61.71,158,195,265l-62.82,86.37c-42.79-32.73-79.55-70.36-113.15-111.09C225.79,1264.22,185.48,1190.29,162.35,1124Z"/><path class="cls-2" d="M1423.36,1091.18c33.66,11.15,66.13,21.89,99.58,32.94-47.08,127.71-125.18,231.52-229.87,317.26-21.17-29.06-41.92-57.56-63-86.57C1318.62,1284.71,1382.58,1197.11,1423.36,1091.18Z"/><path class="cls-2" d="M1534.35,655.5c-35,9.6-68.92,18.89-103.25,28.28-16.1-50.64-38.66-97.41-66.59-141.54a605.24,605.24,0,0,0-99.27-120.07c24-26.33,47.44-52.19,71.6-78.78C1428.68,431,1495.32,533.82,1534.35,655.5Z"/><path class="cls-2" d="M346.48,343.24l71.19,80.11c-77.07,72.84-131.89,159-165.19,260-34.17-9.39-67.73-18.58-101.8-28A785.88,785.88,0,0,1,229.1,487.57C261.82,434.71,301,387.06,346.48,343.24Z"/><path class="cls-2" d="M136.9,707.68c34.48,9.76,68,19.21,101.8,28.76-22.92,101.12-21.43,201.17,5.93,301.88-33.14,11.15-65.81,22.09-99.42,33.4a675.1,675.1,0,0,1-27.15-159C114.6,843.81,119.71,775.62,136.9,707.68Z"/><path class="cls-2" d="M1445.25,735.46c34.33-9.45,67.88-18.69,102.47-28.24,28.08,123,25.65,243.71-9.24,364.86-33-10.94-65.2-21.58-98.34-32.52C1467.24,938.9,1468.94,838.18,1445.25,735.46Z"/><path class="cls-1" d="M851.81,968.53c30,.15,54.2-23.33,54.46-53a53.89,53.89,0,0,0-52.66-54.82c-25.55-.77-53.84,18.12-55.23,53.53C797.19,943.34,822.54,968.37,851.81,968.53Zm-7.54-269.72-2.37.15q-49.1,106.86-98.34,213.82c9.7,2.22,37.89,2,45.78-.26,1.24-16.21,6.77-30.87,18.85-42.64s26.32-17.81,43.2-18.17c15.08-.36,28.29,4.28,40.11,13.42,15.8,12.23,22.51,29.22,24.63,48.42h23.69C907.66,841.23,876,770,844.27,698.81ZM792.6,590.92c-7.44-5.32-15.39-1.14-23.85-3.62,24.41-52.5,48.78-104.68,73.09-156.93.78,0,1.5-.05,2.27-.05Q880.28,509,916.75,588.18c-8.31,3.41-16.88-2.73-24.94,3.15,79.66,171,157,343,241,513.12-3.45.26-5.57.51-7.74.51-30.15.06-60.34-.2-90.49.21-6.56.1-9.81-1.86-12.65-7.85-14.4-30.14-29.53-60-44-90.08-2.84-5.83-6.2-8-12.8-8-81.67.26-163.28.16-245,.16h-8Q686,1052.1,660,1104.55H554.1Q673.67,847.24,792.6,590.92Z"/><path class="cls-2" d="M930.37,1175.38l-44.8-13.84c-12.5-3.87-25-7.54-37.43-11.72-5.57-1.91-10.63-1.6-16.16.21-24.21,8-48.47,15.74-72.78,23.54-2.38.77-4.86,1.39-9.14,2.58,30.82-46.51,60.55-91.37,91.16-137.62L931.41,1174C931.05,1174.45,930.74,1174.91,930.37,1175.38Z"/><path class="cls-2" d="M383.08,908.54c-.67-9.86-1.24-18.84-1.91-28.7,13.58-2.68,26.43-2,40.37-2.32.72,9.86,1.39,19.1,2.12,29.63C409.82,908.7,397,908.44,383.08,908.54Z"/><path class="cls-2" d="M615.28,536.3c-7.59-11.36-14.61-21.89-22.2-33.29,7.79-6.51,16.11-11.41,25-17.14,7.43,11.1,14.6,21.83,22.4,33.5C632,525.15,624,530.47,615.28,536.3Z"/><path class="cls-2" d="M1306.39,874V904c-13.58-.72-26.12-1.39-39.08-2.06V872.46c7.17,0,13.52-.21,19.92,0C1293.43,872.72,1299.62,873.44,1306.39,874Z"/><path class="cls-2" d="M1205.57,667.68c12.8-6.14,24.16-11.67,36.65-17.66,4.49,9.24,8.67,17.81,13.22,27.21-12.5,6-23.85,11.56-36.45,17.7C1214.5,685.85,1210.27,677.23,1205.57,667.68Z"/><path class="cls-2" d="M470.53,700.3l-36.6-17.75c4.54-9.35,8.78-18,13.27-27.21,12.28,5.94,23.69,11.46,36.39,17.55C479.2,682.08,475.07,690.75,470.53,700.3Z"/><path class="cls-2" d="M450.29,1131.29c-5.52-8.57-10.63-16.47-16.41-25.4,11.36-7.28,22.25-14.3,34.33-22,5.47,8.62,10.58,16.73,16.26,25.66C472.8,1116.94,461.91,1123.91,450.29,1131.29Z"/><path class="cls-2" d="M1239.12,1126c-11.77-7.48-22.61-14.45-34.17-21.78,5.47-8.72,10.48-16.62,16-25.5,11.46,7.23,22.36,14.09,34.38,21.68C1249.81,1109.09,1244.7,1117.15,1239.12,1126Z"/><path class="cls-2" d="M1096.44,497.33c-7.69,11.61-14.87,22.35-22.4,33.71-8.62-5.73-16.42-10.95-25.25-16.83,7.54-11.26,14.66-22,22.56-33.87C1079.77,486,1087.72,491.39,1096.44,497.33Z"/></svg>